# xmcd
#
# Track frame offsets:
#	150
#	13937
#	30422
#	47620
#	61960
#	80027
#	94942
#	108362
#	121575
#	131710
#	146425
#	160475
#	176200
#	187430
#	202472
#	215425
#	237122
#	254100
#	270690
#
# Disc length: 3843 seconds
#
# Revision: 0
# Processed by: cddbd v1.5.1PL0 Copyright (c) Steve Scherf et al.
# Submitted via: dBpowerAMP V4.0
#
DISCID=270f0113
DTITLE=Junior Parker - Little
DYEAR=1990
DGENRE=Blues
TTITLE0=Five long years
TTITLE1=Tin pan alley
TTITLE2=Blue shadows
TTITLE3=That's alright
TTITLE4=Way back home
TTITLE5=I need your love so bad
TTITLE6=Look on yonders wall
TTITLE7=Man or mouse
TTITLE8=Sweet home chicago
TTITLE9=I like your stile
TTITLE10=Drownin' on dry land
TTITLE11=Good things don't happen everyday
TTITLE12=Ain't that a shame
TTITLE13=A losing battle
TTITLE14=It ain't what'cha got
TTITLE15=In the heat of the night
TTITLE16=Workin'
TTITLE17=Oh! darling
TTITLE18=The inner light
EXTD=
EXTT0=
EXTT1=
EXTT2=
EXTT3=
EXTT4=
EXTT5=
EXTT6=
EXTT7=
EXTT8=
EXTT9=
EXTT10=
EXTT11=
EXTT12=
EXTT13=
EXTT14=
EXTT15=
EXTT16=
EXTT17=
EXTT18=
PLAYORDER=
